<svg xmlns="http://www.w3.org/2000/svg" width="32" height="32" viewBox="0 0 32 32"><g fill="#FFF"><path d="M20.916 16c0 2.728-2.21 4.938-4.938 4.938s-4.94-2.21-4.94-4.938c0-.394.052-.773.14-1.14h-.898v6.838h11.396V14.86h-.897c.083.367.134.746.134 1.14z"/><path d="M15.978 18.66c1.466 0 2.66-1.194 2.66-2.66s-1.194-2.66-2.66-2.66c-1.466 0-2.66 1.194-2.66 2.66s1.193 2.66 2.66 2.66zm2.66-8.358h3.04v3.04h-3.04z"/><path d="M16 0C7.164 0 0 7.164 0 16c0 8.837 7.164 16 16 16 8.837 0 16-7.163 16-16 0-8.836-7.163-16-16-16zm7.955 21.698c0 1.254-1.025 2.28-2.28 2.28H10.28c-1.254 0-2.28-1.026-2.28-2.28V10.302c0-1.253 1.026-2.28 2.28-2.28h11.395c1.254 0 2.28 1.027 2.28 2.28v11.396z"/></g></svg>