<svg xmlns="http://www.w3.org/2000/svg" width="162.125" height="34.969" viewBox="0 0 162.125 34.969"><defs><style>.cls-1 { fill-rule: evenodd; }</style></defs><path id="DEVICE" class="cls-1" d="M.005.68v33.6h13.44a15.56 15.56 0 0 0 11.64-4.823 16.523 16.523 0 0 0 4.68-11.976 16.524 16.524 0 0 0-4.68-11.975A15.56 15.56 0 0 0 13.445.68H.005zm7.68 26.21V8.072h5.76A8.56 8.56 0 0 1 19.9 10.64a9.45 9.45 0 0 1 2.473 6.84 9.447 9.447 0 0 1-2.472 6.84 8.557 8.557 0 0 1-6.455 2.57h-5.76zm34.56-5.953h12v-7.3h-12V8.073h13.2V.68h-20.88v33.6h21.12v-7.39h-13.44v-5.953zM78.34 34.28L89.286.68h-8.4l-7.44 24.72L66.005.68h-8.4l10.944 33.6h9.79zm14.3 0h7.68V.68h-7.68v33.6zm38.353-1.415a15.45 15.45 0 0 0 6-5.688l-6.624-3.84a7.456 7.456 0 0 1-3.145 3.024 9.75 9.75 0 0 1-4.632 1.1 9.493 9.493 0 0 1-7.128-2.735 9.945 9.945 0 0 1-2.664-7.248 9.946 9.946 0 0 1 2.665-7.248 9.493 9.493 0 0 1 7.128-2.737 9.787 9.787 0 0 1 4.608 1.08 7.577 7.577 0 0 1 3.17 3.048l6.623-3.84a15.8 15.8 0 0 0-6.048-5.687 17.21 17.21 0 0 0-8.35-2.084 17.06 17.06 0 0 0-17.47 17.47 17.06 17.06 0 0 0 17.472 17.473 17.3 17.3 0 0 0 8.4-2.088zm17.76-11.928h12v-7.3h-12V8.073h13.2V.68h-20.88v33.6h21.12v-7.39h-13.44v-5.953z"/></svg>