<svg xmlns="http://www.w3.org/2000/svg" width="23" height="23" viewBox="0 0 23 23"><path d="M11.5 2c5.238 0 9.5 4.262 9.5 9.5S16.738 21 11.5 21 2 16.738 2 11.5 6.262 2 11.5 2m0-2C5.15 0 0 5.15 0 11.5 0 17.852 5.15 23 11.5 23 17.852 23 23 17.852 23 11.5 23 5.15 17.852 0 11.5 0z"/><path d="M11.5 9.004c1.376 0 2.496 1.12 2.496 2.496s-1.12 2.496-2.496 2.496-2.496-1.12-2.496-2.496 1.12-2.496 2.496-2.496m0-2c-2.483 0-4.496 2.013-4.496 4.496 0 2.483 2.013 4.496 4.496 4.496 2.483 0 4.496-2.013 4.496-4.496 0-2.483-2.013-4.496-4.496-4.496z"/></svg>